# xmcd CD database file
#
# Track frame offsets:
#	150
#	24356
#	43559
#	68359
#	94204
#	116140
#	140548
#	161522
#	182860
#	204123
#	238012
#
# Disc length: 3506 seconds
#
# Revision: 0
# Processed by: cddbd v1.5.2PL0 Copyright (c) Steve Scherf et al.
# Submitted via: CDex 1.70beta2
#
DISCID=8c0db00b
DTITLE=Four80East - En Route
DYEAR=2007
DGENRE=Jazz
TTITLE0=Five by Five
TTITLE1=Noodle Soup
TTITLE2=The Drop
TTITLE3=Double Down
TTITLE4=Been Too Long
TTITLE5=Closer
TTITLE6=En Route
TTITLE7=51 Division
TTITLE8=Don't Look Back
TTITLE9=Easy Come, Easy Go
TTITLE10=Waterline
EXTD=YEAR: 2007
EXTT0=
EXTT1=
EXTT2=
EXTT3=
EXTT4=
EXTT5=
EXTT6=
EXTT7=
EXTT8=
EXTT9=
EXTT10=
PLAYORDER=
